<mxfile host="app.diagrams.net" agent="Mozilla/5.0 (Windows NT 10.0; Win64; x64) AppleWebKit/537.36 (KHTML, like Gecko) Chrome/133.0.0.0 Safari/537.36" version="26.0.16">
  <diagram name="Page-1" id="CbB-KNLSEJUaRlMhJKRz">
    <mxGraphModel dx="1160" dy="2444" grid="1" gridSize="10" guides="1" tooltips="1" connect="1" arrows="1" fold="1" page="1" pageScale="1" pageWidth="850" pageHeight="1100" background="none" math="0" shadow="0">
      <root>
        <mxCell id="0" />
        <mxCell id="1" parent="0" />
        <mxCell id="nDoZd8mTRn5cThsnv-rG-1" value="PRGI Official" style="shape=umlActor;verticalLabelPosition=bottom;verticalAlign=top;html=1;outlineConnect=0;fillColor=#e51400;strokeColor=#B20000;strokeWidth=2;fontSize=16;fontColor=light-dark(#000000, #121212);" vertex="1" parent="1">
          <mxGeometry x="1180" y="-650" width="30" height="60" as="geometry" />
        </mxCell>
        <mxCell id="nDoZd8mTRn5cThsnv-rG-2" value="System Administrator" style="shape=umlActor;verticalLabelPosition=bottom;verticalAlign=top;html=1;outlineConnect=0;fillColor=#0050ef;strokeColor=#001DBC;strokeWidth=2;fontSize=16;fontColor=light-dark(#000000, #121212);" vertex="1" parent="1">
          <mxGeometry x="1180" y="-760" width="30" height="60" as="geometry" />
        </mxCell>
        <mxCell id="nDoZd8mTRn5cThsnv-rG-3" value="&lt;font&gt;Title Applicant&lt;/font&gt;" style="shape=umlActor;verticalLabelPosition=bottom;verticalAlign=top;html=1;outlineConnect=0;fillColor=#647687;strokeColor=#314354;strokeWidth=2;fontSize=16;fontColor=light-dark(#000000, #121212);" vertex="1" parent="1">
          <mxGeometry x="590" y="70" width="30" height="60" as="geometry" />
        </mxCell>
        <mxCell id="nDoZd8mTRn5cThsnv-rG-6" value="&lt;div&gt;&lt;span style=&quot;font-size: 16px; background-color: transparent; color: light-dark(rgb(0, 0, 0), rgb(255, 255, 255));&quot;&gt;Sign Up&lt;/span&gt;&lt;/div&gt;" style="ellipse;whiteSpace=wrap;html=1;strokeWidth=1;align=center;verticalAlign=middle;fontFamily=Helvetica;fontSize=12;fillColor=#FFFFCC;strokeColor=#36393d;" vertex="1" parent="1">
          <mxGeometry x="902.5" y="-230" width="90" height="40" as="geometry" />
        </mxCell>
        <mxCell id="nDoZd8mTRn5cThsnv-rG-7" value="Ensure Security &amp;amp; Compliance" style="ellipse;whiteSpace=wrap;html=1;strokeWidth=1;align=center;verticalAlign=middle;fontFamily=Helvetica;fontSize=16;fillColor=#FFFFCC;strokeColor=#36393d;" vertex="1" parent="1">
          <mxGeometry x="680" y="-550" width="160" height="70" as="geometry" />
        </mxCell>
        <mxCell id="nDoZd8mTRn5cThsnv-rG-9" value="Access Help &amp;amp; Guidelines" style="ellipse;whiteSpace=wrap;html=1;strokeWidth=1;align=center;verticalAlign=middle;fontFamily=Helvetica;fontSize=16;fillColor=#FFFFCC;strokeColor=#36393d;" vertex="1" parent="1">
          <mxGeometry x="867.5" y="-100" width="135" height="60" as="geometry" />
        </mxCell>
        <mxCell id="nDoZd8mTRn5cThsnv-rG-10" value="Manage Preferences in Settings" style="ellipse;whiteSpace=wrap;html=1;strokeWidth=1;align=center;verticalAlign=middle;fontFamily=Helvetica;fontSize=16;fillColor=#FFFFCC;strokeColor=#36393d;" vertex="1" parent="1">
          <mxGeometry x="860" y="-310" width="150" height="70" as="geometry" />
        </mxCell>
        <mxCell id="nDoZd8mTRn5cThsnv-rG-11" value="Track Submission History" style="ellipse;whiteSpace=wrap;html=1;strokeWidth=1;align=center;verticalAlign=middle;fontFamily=Helvetica;fontSize=16;fillColor=#FFFFCC;strokeColor=#36393d;" vertex="1" parent="1">
          <mxGeometry x="320" y="-30" width="160" height="60" as="geometry" />
        </mxCell>
        <mxCell id="nDoZd8mTRn5cThsnv-rG-12" value="Search and View Existing Titles" style="ellipse;whiteSpace=wrap;html=1;strokeWidth=1;align=center;verticalAlign=middle;fontFamily=Helvetica;fontSize=16;fillColor=#FFFFCC;strokeColor=#36393d;" vertex="1" parent="1">
          <mxGeometry x="860" y="-170" width="155" height="60" as="geometry" />
        </mxCell>
        <mxCell id="nDoZd8mTRn5cThsnv-rG-13" value="Flag Rejected Title" style="ellipse;whiteSpace=wrap;html=1;strokeWidth=1;align=center;verticalAlign=middle;fontFamily=Helvetica;fontSize=16;fillColor=#FFFFCC;strokeColor=#36393d;" vertex="1" parent="1">
          <mxGeometry x="350" y="-100" width="130" height="60" as="geometry" />
        </mxCell>
        <mxCell id="nDoZd8mTRn5cThsnv-rG-14" value="Register Title" style="ellipse;whiteSpace=wrap;html=1;strokeWidth=1;align=center;verticalAlign=middle;fontFamily=Helvetica;fontSize=16;fillColor=#FFFFCC;strokeColor=#36393d;" vertex="1" parent="1">
          <mxGeometry x="363" y="-150" width="125" height="40" as="geometry" />
        </mxCell>
        <mxCell id="nDoZd8mTRn5cThsnv-rG-15" value="Modify and Resubmit Title" style="ellipse;whiteSpace=wrap;html=1;strokeWidth=1;align=center;verticalAlign=middle;fontFamily=Helvetica;fontSize=16;fillColor=#FFFFCC;strokeColor=#36393d;" vertex="1" parent="1">
          <mxGeometry x="363" y="-220" width="135" height="60" as="geometry" />
        </mxCell>
        <mxCell id="nDoZd8mTRn5cThsnv-rG-16" value="View Verification Result" style="ellipse;whiteSpace=wrap;html=1;strokeWidth=1;align=center;verticalAlign=middle;fontFamily=Helvetica;fontSize=16;fillColor=#FFFFCC;strokeColor=#36393d;" vertex="1" parent="1">
          <mxGeometry x="363" y="-290" width="150" height="60" as="geometry" />
        </mxCell>
        <mxCell id="nDoZd8mTRn5cThsnv-rG-17" value="Receive Feedback on Rejected Title" style="ellipse;whiteSpace=wrap;html=1;strokeWidth=1;align=center;verticalAlign=middle;fontFamily=Helvetica;fontSize=16;fillColor=#FFFFCC;strokeColor=#36393d;" vertex="1" parent="1">
          <mxGeometry x="380" y="-380" width="155" height="80" as="geometry" />
        </mxCell>
        <mxCell id="nDoZd8mTRn5cThsnv-rG-18" value="View Verification Probability" style="ellipse;whiteSpace=wrap;html=1;strokeWidth=1;align=center;verticalAlign=middle;fontFamily=Helvetica;fontSize=16;fillColor=#FFFFCC;strokeColor=#36393d;" vertex="1" parent="1">
          <mxGeometry x="435" y="-440" width="155" height="60" as="geometry" />
        </mxCell>
        <mxCell id="nDoZd8mTRn5cThsnv-rG-19" value="View Similarity Score" style="ellipse;whiteSpace=wrap;html=1;strokeWidth=1;align=center;verticalAlign=middle;fontFamily=Helvetica;fontSize=16;fillColor=#FFFFCC;strokeColor=#36393d;" vertex="1" parent="1">
          <mxGeometry x="570" y="-405" width="140" height="60" as="geometry" />
        </mxCell>
        <mxCell id="nDoZd8mTRn5cThsnv-rG-20" value="&lt;font style=&quot;font-size: 16px;&quot;&gt;Submit Title for Verification&lt;/font&gt;" style="ellipse;whiteSpace=wrap;html=1;strokeWidth=1;align=center;verticalAlign=middle;fontFamily=Helvetica;fontSize=12;fillColor=#FFFFCC;strokeColor=#36393d;" vertex="1" parent="1">
          <mxGeometry x="660" y="-460" width="150" height="60" as="geometry" />
        </mxCell>
        <mxCell id="nDoZd8mTRn5cThsnv-rG-21" value="&lt;font style=&quot;font-size: 16px;&quot;&gt;Reset Password&lt;/font&gt;" style="ellipse;whiteSpace=wrap;html=1;strokeWidth=1;align=center;verticalAlign=top;fontFamily=Helvetica;fontSize=12;fillColor=#FFFFCC;strokeColor=#36393d;" vertex="1" parent="1">
          <mxGeometry x="872.5" y="-380" width="110" height="60" as="geometry" />
        </mxCell>
        <mxCell id="nDoZd8mTRn5cThsnv-rG-22" value="&lt;font&gt;Log Out&lt;/font&gt;" style="ellipse;whiteSpace=wrap;html=1;strokeWidth=1;align=center;verticalAlign=middle;fontFamily=Helvetica;fontSize=16;fillColor=#FFFFCC;strokeColor=#36393d;" vertex="1" parent="1">
          <mxGeometry x="872.5" y="-430" width="100" height="40" as="geometry" />
        </mxCell>
        <mxCell id="nDoZd8mTRn5cThsnv-rG-23" value="&lt;font style=&quot;font-size: 16px;&quot;&gt;Log In&lt;/font&gt;" style="ellipse;whiteSpace=wrap;html=1;strokeWidth=1;align=center;verticalAlign=middle;fontFamily=Helvetica;fontSize=12;fillColor=#FFFFCC;strokeColor=#36393d;" vertex="1" parent="1">
          <mxGeometry x="812.5" y="-470" width="90" height="40" as="geometry" />
        </mxCell>
        <mxCell id="nDoZd8mTRn5cThsnv-rG-25" value="Manage User Support Requests" style="ellipse;whiteSpace=wrap;html=1;strokeWidth=1;align=center;verticalAlign=middle;fontFamily=Helvetica;fontSize=16;fillColor=#FFFFCC;strokeColor=#36393d;" vertex="1" parent="1">
          <mxGeometry x="1370" y="-345" width="150" height="70" as="geometry" />
        </mxCell>
        <mxCell id="nDoZd8mTRn5cThsnv-rG-26" value="Audit User Activity &amp;amp; Logs" style="ellipse;whiteSpace=wrap;html=1;strokeWidth=1;align=center;verticalAlign=middle;fontFamily=Helvetica;fontSize=16;fillColor=#FFFFCC;strokeColor=#36393d;" vertex="1" parent="1">
          <mxGeometry x="1430" y="-510" width="130" height="60" as="geometry" />
        </mxCell>
        <mxCell id="nDoZd8mTRn5cThsnv-rG-27" value="Monitor &amp;amp; Optimize Database Performance" style="ellipse;whiteSpace=wrap;html=1;strokeWidth=1;align=center;verticalAlign=middle;fontFamily=Helvetica;fontSize=16;fillColor=#FFFFCC;strokeColor=#36393d;" vertex="1" parent="1">
          <mxGeometry x="1425" y="-445" width="200" height="65" as="geometry" />
        </mxCell>
        <mxCell id="nDoZd8mTRn5cThsnv-rG-28" value="&lt;span&gt;Configure System Settings&lt;/span&gt;" style="ellipse;whiteSpace=wrap;html=1;strokeWidth=1;align=center;verticalAlign=middle;fontFamily=Helvetica;fontSize=16;fillColor=#FFFFCC;strokeColor=#36393d;" vertex="1" parent="1">
          <mxGeometry x="498" y="-530" width="160" height="60" as="geometry" />
        </mxCell>
        <mxCell id="nDoZd8mTRn5cThsnv-rG-29" value="Manage User Accounts" style="ellipse;whiteSpace=wrap;html=1;strokeWidth=1;align=center;verticalAlign=middle;fontFamily=Helvetica;fontSize=16;fillColor=#FFFFCC;strokeColor=#36393d;" vertex="1" parent="1">
          <mxGeometry x="1290" y="-400" width="130" height="60" as="geometry" />
        </mxCell>
        <mxCell id="nDoZd8mTRn5cThsnv-rG-30" value="View Submission Reports &amp;amp; Trends" style="ellipse;whiteSpace=wrap;html=1;strokeWidth=1;align=center;verticalAlign=middle;fontFamily=Helvetica;fontSize=16;fillColor=#FFFFCC;strokeColor=#36393d;" vertex="1" parent="1">
          <mxGeometry x="1300" y="-275" width="160" height="70" as="geometry" />
        </mxCell>
        <mxCell id="nDoZd8mTRn5cThsnv-rG-31" value="Override System Decisions" style="ellipse;whiteSpace=wrap;html=1;strokeWidth=1;align=center;verticalAlign=middle;fontFamily=Helvetica;fontSize=16;fillColor=#FFFFCC;strokeColor=#36393d;" vertex="1" parent="1">
          <mxGeometry x="1285" y="-200" width="140" height="70" as="geometry" />
        </mxCell>
        <mxCell id="nDoZd8mTRn5cThsnv-rG-32" value="Review Flagged Title Submissions" style="ellipse;whiteSpace=wrap;html=1;strokeWidth=1;align=center;verticalAlign=middle;fontFamily=Helvetica;fontSize=16;fillColor=#FFFFCC;strokeColor=#36393d;" vertex="1" parent="1">
          <mxGeometry x="1260" y="-120" width="150" height="70" as="geometry" />
        </mxCell>
        <mxCell id="nDoZd8mTRn5cThsnv-rG-33" value="Set/Modify Acceptance Probability" style="ellipse;whiteSpace=wrap;html=1;strokeWidth=1;align=center;verticalAlign=middle;fontFamily=Helvetica;fontSize=16;fillColor=#FFFFCC;strokeColor=#36393d;" vertex="1" parent="1">
          <mxGeometry x="1190" y="-50" width="130" height="80" as="geometry" />
        </mxCell>
        <mxCell id="nDoZd8mTRn5cThsnv-rG-34" value="Manage Disallowed Affixes" style="ellipse;whiteSpace=wrap;html=1;strokeWidth=1;align=center;verticalAlign=middle;fontFamily=Helvetica;fontSize=16;fillColor=#FFFFCC;strokeColor=#36393d;" vertex="1" parent="1">
          <mxGeometry x="1090" y="-100" width="120" height="70" as="geometry" />
        </mxCell>
        <mxCell id="nDoZd8mTRn5cThsnv-rG-35" value="Manage Disallowed Words" style="ellipse;whiteSpace=wrap;html=1;strokeWidth=1;align=center;verticalAlign=middle;fontFamily=Helvetica;fontSize=16;fillColor=#FFFFCC;strokeColor=#36393d;" vertex="1" parent="1">
          <mxGeometry x="1015" y="-40" width="120" height="70" as="geometry" />
        </mxCell>
        <mxCell id="nDoZd8mTRn5cThsnv-rG-36" value="Contact Support" style="ellipse;whiteSpace=wrap;html=1;strokeWidth=1;align=center;verticalAlign=middle;fontFamily=Helvetica;fontSize=16;fillColor=#FFFFCC;strokeColor=#36393d;" vertex="1" parent="1">
          <mxGeometry x="900" y="-35" width="110" height="50" as="geometry" />
        </mxCell>
        <mxCell id="nDoZd8mTRn5cThsnv-rG-46" value="" style="endArrow=none;html=1;rounded=0;fontFamily=Helvetica;fontSize=12;fontColor=default;entryX=0.5;entryY=1;entryDx=0;entryDy=0;" edge="1" parent="1" target="nDoZd8mTRn5cThsnv-rG-23">
          <mxGeometry width="50" height="50" relative="1" as="geometry">
            <mxPoint x="630" y="70" as="sourcePoint" />
            <mxPoint x="760" y="-120" as="targetPoint" />
          </mxGeometry>
        </mxCell>
        <mxCell id="nDoZd8mTRn5cThsnv-rG-47" value="" style="endArrow=none;html=1;rounded=0;fontFamily=Helvetica;fontSize=12;fontColor=default;entryX=0;entryY=0.5;entryDx=0;entryDy=0;" edge="1" parent="1" target="nDoZd8mTRn5cThsnv-rG-22">
          <mxGeometry width="50" height="50" relative="1" as="geometry">
            <mxPoint x="630" y="70" as="sourcePoint" />
            <mxPoint x="760" y="-120" as="targetPoint" />
          </mxGeometry>
        </mxCell>
        <mxCell id="nDoZd8mTRn5cThsnv-rG-48" value="" style="endArrow=none;html=1;rounded=0;fontFamily=Helvetica;fontSize=12;fontColor=default;entryX=0;entryY=0.5;entryDx=0;entryDy=0;" edge="1" parent="1" target="nDoZd8mTRn5cThsnv-rG-21">
          <mxGeometry width="50" height="50" relative="1" as="geometry">
            <mxPoint x="630" y="70" as="sourcePoint" />
            <mxPoint x="760" y="-120" as="targetPoint" />
          </mxGeometry>
        </mxCell>
        <mxCell id="nDoZd8mTRn5cThsnv-rG-49" value="" style="endArrow=none;html=1;rounded=0;fontFamily=Helvetica;fontSize=12;fontColor=default;entryX=0;entryY=0.5;entryDx=0;entryDy=0;" edge="1" parent="1" target="nDoZd8mTRn5cThsnv-rG-10">
          <mxGeometry width="50" height="50" relative="1" as="geometry">
            <mxPoint x="630" y="70" as="sourcePoint" />
            <mxPoint x="760" y="-120" as="targetPoint" />
          </mxGeometry>
        </mxCell>
        <mxCell id="nDoZd8mTRn5cThsnv-rG-50" value="" style="endArrow=none;html=1;rounded=0;fontFamily=Helvetica;fontSize=12;fontColor=default;entryX=0;entryY=0.5;entryDx=0;entryDy=0;" edge="1" parent="1" target="nDoZd8mTRn5cThsnv-rG-6">
          <mxGeometry width="50" height="50" relative="1" as="geometry">
            <mxPoint x="630" y="70" as="sourcePoint" />
            <mxPoint x="760" y="-120" as="targetPoint" />
          </mxGeometry>
        </mxCell>
        <mxCell id="nDoZd8mTRn5cThsnv-rG-51" value="" style="endArrow=none;html=1;rounded=0;fontFamily=Helvetica;fontSize=12;fontColor=default;exitX=0;exitY=1;exitDx=0;exitDy=0;" edge="1" parent="1" source="nDoZd8mTRn5cThsnv-rG-12">
          <mxGeometry width="50" height="50" relative="1" as="geometry">
            <mxPoint x="710" y="-70" as="sourcePoint" />
            <mxPoint x="630" y="70" as="targetPoint" />
          </mxGeometry>
        </mxCell>
        <mxCell id="nDoZd8mTRn5cThsnv-rG-52" value="" style="endArrow=none;html=1;rounded=0;fontFamily=Helvetica;fontSize=12;fontColor=default;entryX=0;entryY=0.5;entryDx=0;entryDy=0;" edge="1" parent="1" target="nDoZd8mTRn5cThsnv-rG-9">
          <mxGeometry width="50" height="50" relative="1" as="geometry">
            <mxPoint x="630" y="70" as="sourcePoint" />
            <mxPoint x="760" y="-120" as="targetPoint" />
          </mxGeometry>
        </mxCell>
        <mxCell id="nDoZd8mTRn5cThsnv-rG-53" value="" style="endArrow=none;html=1;rounded=0;fontFamily=Helvetica;fontSize=12;fontColor=default;entryX=0;entryY=0.5;entryDx=0;entryDy=0;" edge="1" parent="1" target="nDoZd8mTRn5cThsnv-rG-36">
          <mxGeometry width="50" height="50" relative="1" as="geometry">
            <mxPoint x="630" y="70" as="sourcePoint" />
            <mxPoint x="760" y="-120" as="targetPoint" />
          </mxGeometry>
        </mxCell>
        <mxCell id="nDoZd8mTRn5cThsnv-rG-55" value="" style="endArrow=none;html=1;rounded=0;fontFamily=Helvetica;fontSize=12;fontColor=default;exitX=0.5;exitY=0;exitDx=0;exitDy=0;strokeColor=light-dark(#0000ff, #ededed);" edge="1" parent="1" source="nDoZd8mTRn5cThsnv-rG-23">
          <mxGeometry width="50" height="50" relative="1" as="geometry">
            <mxPoint x="830" y="-190" as="sourcePoint" />
            <mxPoint x="1100" y="-690" as="targetPoint" />
          </mxGeometry>
        </mxCell>
        <mxCell id="nDoZd8mTRn5cThsnv-rG-56" value="" style="endArrow=none;html=1;rounded=0;fontFamily=Helvetica;fontSize=12;fontColor=default;exitX=0.5;exitY=0;exitDx=0;exitDy=0;strokeColor=light-dark(#0000ff, #ededed);" edge="1" parent="1" source="nDoZd8mTRn5cThsnv-rG-22">
          <mxGeometry width="50" height="50" relative="1" as="geometry">
            <mxPoint x="970" y="-480" as="sourcePoint" />
            <mxPoint x="1100" y="-690" as="targetPoint" />
          </mxGeometry>
        </mxCell>
        <mxCell id="nDoZd8mTRn5cThsnv-rG-57" value="" style="endArrow=none;html=1;rounded=0;fontFamily=Helvetica;fontSize=12;fontColor=default;exitX=1;exitY=0;exitDx=0;exitDy=0;strokeColor=light-dark(#0000ff, #ededed);" edge="1" parent="1" source="nDoZd8mTRn5cThsnv-rG-21">
          <mxGeometry width="50" height="50" relative="1" as="geometry">
            <mxPoint x="970" y="-480" as="sourcePoint" />
            <mxPoint x="1100" y="-690" as="targetPoint" />
          </mxGeometry>
        </mxCell>
        <mxCell id="nDoZd8mTRn5cThsnv-rG-58" value="" style="endArrow=none;html=1;rounded=0;fontFamily=Helvetica;fontSize=12;fontColor=default;exitX=1;exitY=0;exitDx=0;exitDy=0;strokeColor=light-dark(#0000ff, #ededed);" edge="1" parent="1" source="nDoZd8mTRn5cThsnv-rG-10">
          <mxGeometry width="50" height="50" relative="1" as="geometry">
            <mxPoint x="970" y="-480" as="sourcePoint" />
            <mxPoint x="1100" y="-690" as="targetPoint" />
          </mxGeometry>
        </mxCell>
        <mxCell id="nDoZd8mTRn5cThsnv-rG-59" value="" style="endArrow=none;html=1;rounded=0;fontFamily=Helvetica;fontSize=12;fontColor=default;exitX=1;exitY=0;exitDx=0;exitDy=0;strokeColor=light-dark(#0000ff, #ededed);" edge="1" parent="1" source="nDoZd8mTRn5cThsnv-rG-7">
          <mxGeometry width="50" height="50" relative="1" as="geometry">
            <mxPoint x="840" y="-527" as="sourcePoint" />
            <mxPoint x="1100" y="-690" as="targetPoint" />
          </mxGeometry>
        </mxCell>
        <mxCell id="nDoZd8mTRn5cThsnv-rG-60" value="" style="endArrow=none;html=1;rounded=0;fontFamily=Helvetica;fontSize=12;fontColor=default;exitX=0.5;exitY=0;exitDx=0;exitDy=0;strokeColor=light-dark(#0000ff, #ededed);" edge="1" parent="1" source="nDoZd8mTRn5cThsnv-rG-28">
          <mxGeometry width="50" height="50" relative="1" as="geometry">
            <mxPoint x="760" y="-500" as="sourcePoint" />
            <mxPoint x="1100" y="-690" as="targetPoint" />
          </mxGeometry>
        </mxCell>
        <mxCell id="nDoZd8mTRn5cThsnv-rG-61" value="" style="endArrow=none;html=1;rounded=0;fontFamily=Helvetica;fontSize=12;fontColor=default;entryX=0.5;entryY=0;entryDx=0;entryDy=0;strokeColor=light-dark(#0000ff, #ededed);" edge="1" parent="1" target="nDoZd8mTRn5cThsnv-rG-25">
          <mxGeometry width="50" height="50" relative="1" as="geometry">
            <mxPoint x="1290" y="-690" as="sourcePoint" />
            <mxPoint x="1350" y="-550" as="targetPoint" />
          </mxGeometry>
        </mxCell>
        <mxCell id="nDoZd8mTRn5cThsnv-rG-62" value="" style="endArrow=none;html=1;rounded=0;fontFamily=Helvetica;fontSize=12;fontColor=default;exitX=0.5;exitY=0;exitDx=0;exitDy=0;strokeColor=light-dark(#0000ff, #ededed);" edge="1" parent="1" source="nDoZd8mTRn5cThsnv-rG-29">
          <mxGeometry width="50" height="50" relative="1" as="geometry">
            <mxPoint x="1300" y="-500" as="sourcePoint" />
            <mxPoint x="1290" y="-690" as="targetPoint" />
          </mxGeometry>
        </mxCell>
        <mxCell id="nDoZd8mTRn5cThsnv-rG-63" value="" style="endArrow=none;html=1;rounded=0;fontFamily=Helvetica;fontSize=12;fontColor=default;entryX=0.089;entryY=0.203;entryDx=0;entryDy=0;entryPerimeter=0;strokeColor=light-dark(#0000FF,#EDEDED);" edge="1" parent="1" target="nDoZd8mTRn5cThsnv-rG-27">
          <mxGeometry width="50" height="50" relative="1" as="geometry">
            <mxPoint x="1290" y="-690" as="sourcePoint" />
            <mxPoint x="1350" y="-550" as="targetPoint" />
          </mxGeometry>
        </mxCell>
        <mxCell id="nDoZd8mTRn5cThsnv-rG-64" value="" style="endArrow=none;html=1;rounded=0;fontFamily=Helvetica;fontSize=12;fontColor=default;entryX=0.5;entryY=0;entryDx=0;entryDy=0;strokeColor=light-dark(#0000ff, #ededed);" edge="1" parent="1" target="nDoZd8mTRn5cThsnv-rG-26">
          <mxGeometry width="50" height="50" relative="1" as="geometry">
            <mxPoint x="1290" y="-690" as="sourcePoint" />
            <mxPoint x="1350" y="-550" as="targetPoint" />
          </mxGeometry>
        </mxCell>
        <mxCell id="nDoZd8mTRn5cThsnv-rG-65" value="" style="endArrow=none;html=1;rounded=0;fontFamily=Helvetica;fontSize=12;fontColor=default;entryX=0.5;entryY=1;entryDx=0;entryDy=0;" edge="1" parent="1" target="nDoZd8mTRn5cThsnv-rG-20">
          <mxGeometry width="50" height="50" relative="1" as="geometry">
            <mxPoint x="630" y="70" as="sourcePoint" />
            <mxPoint x="720" y="-200" as="targetPoint" />
          </mxGeometry>
        </mxCell>
        <mxCell id="nDoZd8mTRn5cThsnv-rG-66" value="" style="endArrow=classic;html=1;rounded=0;fontFamily=Helvetica;fontSize=12;fontColor=default;exitX=0.5;exitY=1;exitDx=0;exitDy=0;" edge="1" parent="1" source="nDoZd8mTRn5cThsnv-rG-19">
          <mxGeometry width="50" height="50" relative="1" as="geometry">
            <mxPoint x="670" y="-150" as="sourcePoint" />
            <mxPoint x="620" y="60" as="targetPoint" />
          </mxGeometry>
        </mxCell>
        <mxCell id="nDoZd8mTRn5cThsnv-rG-67" value="" style="endArrow=classic;html=1;rounded=0;fontFamily=Helvetica;fontSize=12;fontColor=default;exitX=0.755;exitY=0.958;exitDx=0;exitDy=0;exitPerimeter=0;" edge="1" parent="1" source="nDoZd8mTRn5cThsnv-rG-18">
          <mxGeometry width="50" height="50" relative="1" as="geometry">
            <mxPoint x="670" y="-150" as="sourcePoint" />
            <mxPoint x="610" y="60" as="targetPoint" />
          </mxGeometry>
        </mxCell>
        <mxCell id="nDoZd8mTRn5cThsnv-rG-68" value="" style="endArrow=none;html=1;rounded=0;fontFamily=Helvetica;fontSize=12;fontColor=default;exitX=1;exitY=1;exitDx=0;exitDy=0;entryX=0.225;entryY=1.007;entryDx=0;entryDy=0;entryPerimeter=0;" edge="1" parent="1" source="nDoZd8mTRn5cThsnv-rG-17" target="nDoZd8mTRn5cThsnv-rG-88">
          <mxGeometry width="50" height="50" relative="1" as="geometry">
            <mxPoint x="670" y="-150" as="sourcePoint" />
            <mxPoint x="600" y="50" as="targetPoint" />
          </mxGeometry>
        </mxCell>
        <mxCell id="nDoZd8mTRn5cThsnv-rG-69" value="" style="endArrow=classic;html=1;rounded=0;fontFamily=Helvetica;fontSize=12;fontColor=default;exitX=0.927;exitY=0.742;exitDx=0;exitDy=0;exitPerimeter=0;" edge="1" parent="1" source="nDoZd8mTRn5cThsnv-rG-16">
          <mxGeometry width="50" height="50" relative="1" as="geometry">
            <mxPoint x="670" y="-150" as="sourcePoint" />
            <mxPoint x="590" y="60" as="targetPoint" />
          </mxGeometry>
        </mxCell>
        <mxCell id="nDoZd8mTRn5cThsnv-rG-70" value="" style="endArrow=none;html=1;rounded=0;fontFamily=Helvetica;fontSize=12;fontColor=default;exitX=1;exitY=1;exitDx=0;exitDy=0;" edge="1" parent="1" source="nDoZd8mTRn5cThsnv-rG-15">
          <mxGeometry width="50" height="50" relative="1" as="geometry">
            <mxPoint x="670" y="-150" as="sourcePoint" />
            <mxPoint x="580" y="60" as="targetPoint" />
          </mxGeometry>
        </mxCell>
        <mxCell id="nDoZd8mTRn5cThsnv-rG-71" value="" style="endArrow=none;html=1;rounded=0;fontFamily=Helvetica;fontSize=12;fontColor=default;exitX=1;exitY=1;exitDx=0;exitDy=0;" edge="1" parent="1" source="nDoZd8mTRn5cThsnv-rG-14">
          <mxGeometry width="50" height="50" relative="1" as="geometry">
            <mxPoint x="670" y="-150" as="sourcePoint" />
            <mxPoint x="580" y="60" as="targetPoint" />
          </mxGeometry>
        </mxCell>
        <mxCell id="nDoZd8mTRn5cThsnv-rG-72" value="" style="endArrow=none;html=1;rounded=0;fontFamily=Helvetica;fontSize=12;fontColor=default;exitX=1;exitY=1;exitDx=0;exitDy=0;" edge="1" parent="1" source="nDoZd8mTRn5cThsnv-rG-13">
          <mxGeometry width="50" height="50" relative="1" as="geometry">
            <mxPoint x="670" y="-150" as="sourcePoint" />
            <mxPoint x="580" y="60" as="targetPoint" />
          </mxGeometry>
        </mxCell>
        <mxCell id="nDoZd8mTRn5cThsnv-rG-73" value="" style="endArrow=none;html=1;rounded=0;fontFamily=Helvetica;fontSize=12;fontColor=default;exitX=0.969;exitY=0.692;exitDx=0;exitDy=0;exitPerimeter=0;" edge="1" parent="1" source="nDoZd8mTRn5cThsnv-rG-11">
          <mxGeometry width="50" height="50" relative="1" as="geometry">
            <mxPoint x="670" y="-150" as="sourcePoint" />
            <mxPoint x="580" y="60" as="targetPoint" />
          </mxGeometry>
        </mxCell>
        <mxCell id="nDoZd8mTRn5cThsnv-rG-74" value="" style="endArrow=none;html=1;rounded=0;fontFamily=Helvetica;fontSize=12;fontColor=default;exitX=0.5;exitY=0;exitDx=0;exitDy=0;strokeColor=light-dark(#ff0000, #ededed);" edge="1" parent="1" source="nDoZd8mTRn5cThsnv-rG-23">
          <mxGeometry width="50" height="50" relative="1" as="geometry">
            <mxPoint x="1010" y="-300" as="sourcePoint" />
            <mxPoint x="1140" y="-560" as="targetPoint" />
          </mxGeometry>
        </mxCell>
        <mxCell id="nDoZd8mTRn5cThsnv-rG-75" value="" style="endArrow=none;html=1;rounded=0;fontFamily=Helvetica;fontSize=12;fontColor=default;strokeColor=light-dark(#ff0000, #ededed);" edge="1" parent="1">
          <mxGeometry width="50" height="50" relative="1" as="geometry">
            <mxPoint x="920" y="-430" as="sourcePoint" />
            <mxPoint x="1140" y="-560" as="targetPoint" />
          </mxGeometry>
        </mxCell>
        <mxCell id="nDoZd8mTRn5cThsnv-rG-76" value="" style="endArrow=none;html=1;rounded=0;fontFamily=Helvetica;fontSize=12;fontColor=default;exitX=1;exitY=0;exitDx=0;exitDy=0;strokeColor=light-dark(#ff0000, #ededed);" edge="1" parent="1" source="nDoZd8mTRn5cThsnv-rG-21">
          <mxGeometry width="50" height="50" relative="1" as="geometry">
            <mxPoint x="1010" y="-300" as="sourcePoint" />
            <mxPoint x="1140" y="-560" as="targetPoint" />
          </mxGeometry>
        </mxCell>
        <mxCell id="nDoZd8mTRn5cThsnv-rG-77" value="" style="endArrow=none;html=1;rounded=0;fontFamily=Helvetica;fontSize=12;fontColor=default;strokeColor=light-dark(#ff0000, #ededed);" edge="1" parent="1">
          <mxGeometry width="50" height="50" relative="1" as="geometry">
            <mxPoint x="990" y="-300" as="sourcePoint" />
            <mxPoint x="1140" y="-560" as="targetPoint" />
          </mxGeometry>
        </mxCell>
        <mxCell id="nDoZd8mTRn5cThsnv-rG-78" value="" style="endArrow=none;html=1;rounded=0;fontFamily=Helvetica;fontSize=12;fontColor=default;exitX=0.976;exitY=0.314;exitDx=0;exitDy=0;exitPerimeter=0;fillColor=#e51400;strokeColor=light-dark(#ff0000, #ffacac);" edge="1" parent="1" source="nDoZd8mTRn5cThsnv-rG-6">
          <mxGeometry width="50" height="50" relative="1" as="geometry">
            <mxPoint x="1090" y="-430" as="sourcePoint" />
            <mxPoint x="1190" y="-540" as="targetPoint" />
          </mxGeometry>
        </mxCell>
        <mxCell id="nDoZd8mTRn5cThsnv-rG-79" value="" style="endArrow=none;html=1;rounded=0;fontFamily=Helvetica;fontSize=12;fontColor=default;exitX=1;exitY=0;exitDx=0;exitDy=0;strokeColor=light-dark(#ff0000, #ffacac);" edge="1" parent="1" source="nDoZd8mTRn5cThsnv-rG-12">
          <mxGeometry width="50" height="50" relative="1" as="geometry">
            <mxPoint x="1080" y="-380" as="sourcePoint" />
            <mxPoint x="1190" y="-540" as="targetPoint" />
          </mxGeometry>
        </mxCell>
        <mxCell id="nDoZd8mTRn5cThsnv-rG-80" value="" style="endArrow=none;html=1;rounded=0;fontFamily=Helvetica;fontSize=12;fontColor=default;exitX=0.981;exitY=0.333;exitDx=0;exitDy=0;exitPerimeter=0;strokeColor=light-dark(#ff0000, #ffacac);" edge="1" parent="1" source="nDoZd8mTRn5cThsnv-rG-9">
          <mxGeometry width="50" height="50" relative="1" as="geometry">
            <mxPoint x="1080" y="-290" as="sourcePoint" />
            <mxPoint x="1190" y="-540" as="targetPoint" />
          </mxGeometry>
        </mxCell>
        <mxCell id="nDoZd8mTRn5cThsnv-rG-81" value="" style="endArrow=none;html=1;rounded=0;fontFamily=Helvetica;fontSize=12;fontColor=default;exitX=0.944;exitY=0.215;exitDx=0;exitDy=0;exitPerimeter=0;strokeColor=light-dark(#ff0000, #ffacac);" edge="1" parent="1" source="nDoZd8mTRn5cThsnv-rG-36">
          <mxGeometry width="50" height="50" relative="1" as="geometry">
            <mxPoint x="1080" y="-290" as="sourcePoint" />
            <mxPoint x="1190" y="-540" as="targetPoint" />
            <Array as="points">
              <mxPoint x="1100" y="-280" />
            </Array>
          </mxGeometry>
        </mxCell>
        <mxCell id="nDoZd8mTRn5cThsnv-rG-82" value="" style="endArrow=none;html=1;rounded=0;fontFamily=Helvetica;fontSize=12;fontColor=default;exitX=0.409;exitY=-0.017;exitDx=0;exitDy=0;strokeColor=light-dark(#ff0000, #ffacac);exitPerimeter=0;" edge="1" parent="1" source="nDoZd8mTRn5cThsnv-rG-35">
          <mxGeometry width="50" height="50" relative="1" as="geometry">
            <mxPoint x="1030" y="-290" as="sourcePoint" />
            <mxPoint x="1190" y="-540" as="targetPoint" />
          </mxGeometry>
        </mxCell>
        <mxCell id="nDoZd8mTRn5cThsnv-rG-83" value="" style="endArrow=none;html=1;rounded=0;fontFamily=Helvetica;fontSize=12;fontColor=default;exitX=0.5;exitY=0;exitDx=0;exitDy=0;strokeColor=light-dark(#ff0000, #ffacac);" edge="1" parent="1" source="nDoZd8mTRn5cThsnv-rG-34">
          <mxGeometry width="50" height="50" relative="1" as="geometry">
            <mxPoint x="1030" y="-290" as="sourcePoint" />
            <mxPoint x="1190" y="-540" as="targetPoint" />
          </mxGeometry>
        </mxCell>
        <mxCell id="nDoZd8mTRn5cThsnv-rG-84" value="" style="endArrow=none;html=1;rounded=0;fontFamily=Helvetica;fontSize=12;fontColor=default;exitX=0.385;exitY=0;exitDx=0;exitDy=0;exitPerimeter=0;strokeColor=light-dark(#ff0000, #ffacac);" edge="1" parent="1" source="nDoZd8mTRn5cThsnv-rG-33">
          <mxGeometry width="50" height="50" relative="1" as="geometry">
            <mxPoint x="1030" y="-290" as="sourcePoint" />
            <mxPoint x="1190" y="-540" as="targetPoint" />
          </mxGeometry>
        </mxCell>
        <mxCell id="nDoZd8mTRn5cThsnv-rG-85" value="" style="endArrow=none;html=1;rounded=0;fontFamily=Helvetica;fontSize=12;fontColor=default;exitX=0;exitY=0;exitDx=0;exitDy=0;strokeColor=light-dark(#ff0000, #ffacac);" edge="1" parent="1" source="nDoZd8mTRn5cThsnv-rG-32">
          <mxGeometry width="50" height="50" relative="1" as="geometry">
            <mxPoint x="1160" y="-290" as="sourcePoint" />
            <mxPoint x="1190" y="-540" as="targetPoint" />
          </mxGeometry>
        </mxCell>
        <mxCell id="nDoZd8mTRn5cThsnv-rG-86" value="" style="endArrow=none;html=1;rounded=0;fontFamily=Helvetica;fontSize=12;fontColor=default;exitX=0;exitY=0;exitDx=0;exitDy=0;strokeColor=light-dark(#ff0000, #ffacac);" edge="1" parent="1" source="nDoZd8mTRn5cThsnv-rG-31">
          <mxGeometry width="50" height="50" relative="1" as="geometry">
            <mxPoint x="1160" y="-290" as="sourcePoint" />
            <mxPoint x="1190" y="-540" as="targetPoint" />
          </mxGeometry>
        </mxCell>
        <mxCell id="nDoZd8mTRn5cThsnv-rG-87" value="" style="endArrow=none;html=1;rounded=0;fontFamily=Helvetica;fontSize=12;fontColor=default;exitX=0;exitY=0;exitDx=0;exitDy=0;strokeColor=light-dark(#ff0000, #ffacac);" edge="1" parent="1" source="nDoZd8mTRn5cThsnv-rG-30">
          <mxGeometry width="50" height="50" relative="1" as="geometry">
            <mxPoint x="1160" y="-290" as="sourcePoint" />
            <mxPoint x="1190" y="-540" as="targetPoint" />
          </mxGeometry>
        </mxCell>
        <mxCell id="nDoZd8mTRn5cThsnv-rG-88" value="" style="swimlane;startSize=0;strokeColor=#36393d;strokeWidth=1;align=center;verticalAlign=top;fontFamily=Helvetica;fontSize=12;fontColor=default;fillColor=#FFFFCC;" vertex="1" parent="1">
          <mxGeometry x="300" y="-560" width="1340" height="610" as="geometry" />
        </mxCell>
        <mxCell id="nDoZd8mTRn5cThsnv-rG-89" value="Automatic&amp;nbsp;&lt;div&gt;Title Verification System&lt;/div&gt;" style="text;strokeColor=none;fillColor=none;html=1;fontSize=12;fontStyle=1;verticalAlign=middle;align=center;fontFamily=Helvetica;fontColor=default;" vertex="1" parent="nDoZd8mTRn5cThsnv-rG-88">
          <mxGeometry x="10" y="20" width="170" height="30" as="geometry" />
        </mxCell>
        <mxCell id="nDoZd8mTRn5cThsnv-rG-92" value="&amp;lt;&amp;lt;includes&amp;gt;&amp;gt;" style="html=1;verticalAlign=bottom;endArrow=open;dashed=1;endSize=8;curved=0;rounded=0;fontFamily=Helvetica;fontSize=12;fontColor=default;entryX=0.961;entryY=0.34;entryDx=0;entryDy=0;entryPerimeter=0;" edge="1" parent="1" target="nDoZd8mTRn5cThsnv-rG-32">
          <mxGeometry x="0.0659" y="40" relative="1" as="geometry">
            <mxPoint x="1420" y="-150" as="sourcePoint" />
            <mxPoint x="1360" y="-130" as="targetPoint" />
            <mxPoint as="offset" />
          </mxGeometry>
        </mxCell>
        <mxCell id="nDoZd8mTRn5cThsnv-rG-95" value="" style="endArrow=block;dashed=1;endFill=0;endSize=12;html=1;rounded=0;fontFamily=Helvetica;fontSize=12;fontColor=default;exitX=0;exitY=0.5;exitDx=0;exitDy=0;" edge="1" parent="1" source="nDoZd8mTRn5cThsnv-rG-18">
          <mxGeometry width="160" relative="1" as="geometry">
            <mxPoint x="390" y="-210" as="sourcePoint" />
            <mxPoint x="380" y="-280" as="targetPoint" />
            <Array as="points">
              <mxPoint x="360" y="-350" />
            </Array>
          </mxGeometry>
        </mxCell>
        <mxCell id="nDoZd8mTRn5cThsnv-rG-96" value="" style="endArrow=block;dashed=1;endFill=0;endSize=12;html=1;rounded=0;fontFamily=Helvetica;fontSize=12;fontColor=default;exitX=0;exitY=1;exitDx=0;exitDy=0;entryX=1;entryY=0;entryDx=0;entryDy=0;" edge="1" parent="1" source="nDoZd8mTRn5cThsnv-rG-19" target="nDoZd8mTRn5cThsnv-rG-16">
          <mxGeometry width="160" relative="1" as="geometry">
            <mxPoint x="390" y="-210" as="sourcePoint" />
            <mxPoint x="550" y="-210" as="targetPoint" />
          </mxGeometry>
        </mxCell>
        <mxCell id="nDoZd8mTRn5cThsnv-rG-97" value="" style="endArrow=block;dashed=1;endFill=0;endSize=12;html=1;rounded=0;fontFamily=Helvetica;fontSize=12;fontColor=default;entryX=0.092;entryY=0.192;entryDx=0;entryDy=0;entryPerimeter=0;exitX=0;exitY=0.5;exitDx=0;exitDy=0;" edge="1" parent="1" source="nDoZd8mTRn5cThsnv-rG-16" target="nDoZd8mTRn5cThsnv-rG-13">
          <mxGeometry width="160" relative="1" as="geometry">
            <mxPoint x="390" y="-210" as="sourcePoint" />
            <mxPoint x="550" y="-210" as="targetPoint" />
            <Array as="points">
              <mxPoint x="310" y="-190" />
            </Array>
          </mxGeometry>
        </mxCell>
        <mxCell id="nDoZd8mTRn5cThsnv-rG-98" value="" style="endArrow=block;dashed=1;endFill=0;endSize=12;html=1;rounded=0;fontFamily=Helvetica;fontSize=12;fontColor=default;exitX=0;exitY=1;exitDx=0;exitDy=0;entryX=0;entryY=0.5;entryDx=0;entryDy=0;" edge="1" parent="1" source="nDoZd8mTRn5cThsnv-rG-16" target="nDoZd8mTRn5cThsnv-rG-14">
          <mxGeometry width="160" relative="1" as="geometry">
            <mxPoint x="410" y="-210" as="sourcePoint" />
            <mxPoint x="570" y="-210" as="targetPoint" />
            <Array as="points">
              <mxPoint x="340" y="-190" />
            </Array>
          </mxGeometry>
        </mxCell>
        <mxCell id="nDoZd8mTRn5cThsnv-rG-99" value="&amp;lt;&amp;lt;includes&amp;gt;&amp;gt;" style="html=1;verticalAlign=bottom;endArrow=open;dashed=1;endSize=8;curved=0;rounded=0;fontFamily=Helvetica;fontSize=12;fontColor=default;exitX=0.5;exitY=0;exitDx=0;exitDy=0;entryX=0.067;entryY=0.242;entryDx=0;entryDy=0;entryPerimeter=0;" edge="1" parent="1" source="nDoZd8mTRn5cThsnv-rG-18" target="nDoZd8mTRn5cThsnv-rG-20">
          <mxGeometry x="0.2463" y="2" relative="1" as="geometry">
            <mxPoint x="520" y="-230" as="sourcePoint" />
            <mxPoint x="440" y="-230" as="targetPoint" />
            <Array as="points" />
            <mxPoint y="1" as="offset" />
          </mxGeometry>
        </mxCell>
        <mxCell id="nDoZd8mTRn5cThsnv-rG-100" value="&lt;span&gt;&amp;lt;&amp;lt;includes&amp;gt;&amp;gt;&lt;/span&gt;" style="html=1;verticalAlign=bottom;endArrow=open;dashed=1;endSize=8;curved=0;rounded=0;fontFamily=Helvetica;fontSize=12;fontColor=default;" edge="1" parent="1" target="nDoZd8mTRn5cThsnv-rG-20">
          <mxGeometry x="-0.2728" y="13" relative="1" as="geometry">
            <mxPoint x="600" y="-400" as="sourcePoint" />
            <mxPoint x="660" y="-420" as="targetPoint" />
            <Array as="points">
              <mxPoint x="630" y="-410" />
            </Array>
            <mxPoint as="offset" />
          </mxGeometry>
        </mxCell>
        <mxCell id="nDoZd8mTRn5cThsnv-rG-101" value="&amp;lt;&amp;lt;includes&amp;gt;&amp;gt;" style="html=1;verticalAlign=bottom;endArrow=open;dashed=1;endSize=8;curved=0;rounded=0;fontFamily=Helvetica;fontSize=12;fontColor=default;exitX=1;exitY=0.5;exitDx=0;exitDy=0;entryX=0.747;entryY=0.925;entryDx=0;entryDy=0;entryPerimeter=0;" edge="1" parent="1" source="nDoZd8mTRn5cThsnv-rG-17" target="nDoZd8mTRn5cThsnv-rG-20">
          <mxGeometry x="0.4639" y="3" relative="1" as="geometry">
            <mxPoint x="590" y="-230" as="sourcePoint" />
            <mxPoint x="660" y="-450" as="targetPoint" />
            <Array as="points">
              <mxPoint x="760" y="-260" />
            </Array>
            <mxPoint as="offset" />
          </mxGeometry>
        </mxCell>
      </root>
    </mxGraphModel>
  </diagram>
</mxfile>
